<svg xmlns="http://www.w3.org/2000/svg" viewBox="0 0 900 600"><rect width="900" height="600" fill="#f8f9fa"/><text x="450" y="40" fill="#333" font-family="Arial, sans-serif" font-size="24" font-weight="bold" text-anchor="middle">Các phần Normative trong FHIR R5</text><text x="450" y="70" fill="#555" font-family="Arial, sans-serif" font-size="14" text-anchor="middle">Phần chuẩn hóa không thay đổi đáng kể trong tương lai, đảm bảo khả năng tương thích dài hạn</text><rect width="700" height="60" x="100" y="100" fill="#2c3e50" fill-opacity=".9" rx="5"/><text x="450" y="140" fill="#fff" font-family="Arial, sans-serif" font-size="20" font-weight="bold" text-anchor="middle">FHIR R5</text><rect width="200" height="70" x="150" y="180" fill="#27ae60" fill-opacity=".9" rx="5"/><text x="250" y="210" fill="#fff" font-family="Arial, sans-serif" font-size="16" font-weight="bold" text-anchor="middle">RESTful API</text><text x="250" y="230" fill="#fff" font-family="Arial, sans-serif" font-size="12" text-anchor="middle">Normative từ R4</text><rect width="200" height="70" x="400" y="180" fill="#27ae60" fill-opacity=".9" rx="5"/><text x="500" y="210" fill="#fff" font-family="Arial, sans-serif" font-size="16" font-weight="bold" text-anchor="middle">Data Types</text><text x="500" y="230" fill="#fff" font-family="Arial, sans-serif" font-size="12" text-anchor="middle">Normative từ R4</text><rect width="200" height="70" x="650" y="180" fill="#27ae60" fill-opacity=".9" rx="5"/><text x="750" y="210" fill="#fff" font-family="Arial, sans-serif" font-size="16" font-weight="bold" text-anchor="middle">Core Resources</text><text x="750" y="230" fill="#fff" font-family="Arial, sans-serif" font-size="12" text-anchor="middle">Nhiều đã Normative</text><rect width="250" height="240" x="100" y="290" fill="#f0f0f0" stroke="#ddd" stroke-width="1" rx="5"/><rect width="250" height="40" x="100" y="290" fill="#3498db" fill-opacity=".9" rx="5"/><text x="225" y="315" fill="#fff" font-family="Arial, sans-serif" font-size="16" font-weight="bold" text-anchor="middle">Clinical Resources</text><rect width="210" height="30" x="120" y="340" fill="#27ae60" fill-opacity=".7" rx="3"/><text x="225" y="360" fill="#fff" font-family="Arial, sans-serif" font-size="12" font-weight="bold" text-anchor="middle">Patient (Normative)</text><rect width="210" height="30" x="120" y="375" fill="#27ae60" fill-opacity=".7" rx="3"/><text x="225" y="395" fill="#fff" font-family="Arial, sans-serif" font-size="12" font-weight="bold" text-anchor="middle">Observation (Normative)</text><rect width="210" height="30" x="120" y="410" fill="#2980b9" fill-opacity=".7" rx="3"/><text x="225" y="430" fill="#fff" font-family="Arial, sans-serif" font-size="12" font-weight="bold" text-anchor="middle">Condition (Trial Use)</text><rect width="210" height="30" x="120" y="445" fill="#2980b9" fill-opacity=".7" rx="3"/><text x="225" y="465" fill="#fff" font-family="Arial, sans-serif" font-size="12" font-weight="bold" text-anchor="middle">MedicationRequest (Trial Use)</text><rect width="210" height="30" x="120" y="480" fill="#27ae60" fill-opacity=".7" rx="3"/><text x="225" y="500" fill="#fff" font-family="Arial, sans-serif" font-size="12" font-weight="bold" text-anchor="middle">AllergyIntolerance (Normative)</text><rect width="250" height="240" x="370" y="290" fill="#f0f0f0" stroke="#ddd" stroke-width="1" rx="5"/><rect width="250" height="40" x="370" y="290" fill="#3498db" fill-opacity=".9" rx="5"/><text x="495" y="315" fill="#fff" font-family="Arial, sans-serif" font-size="16" font-weight="bold" text-anchor="middle">Foundation Resources</text><rect width="210" height="30" x="390" y="340" fill="#27ae60" fill-opacity=".7" rx="3"/><text x="495" y="360" fill="#fff" font-family="Arial, sans-serif" font-size="12" font-weight="bold" text-anchor="middle">StructureDefinition (Normative)</text><rect width="210" height="30" x="390" y="375" fill="#27ae60" fill-opacity=".7" rx="3"/><text x="495" y="395" fill="#fff" font-family="Arial, sans-serif" font-size="12" font-weight="bold" text-anchor="middle">ValueSet (Normative)</text><rect width="210" height="30" x="390" y="410" fill="#27ae60" fill-opacity=".7" rx="3"/><text x="495" y="430" fill="#fff" font-family="Arial, sans-serif" font-size="12" font-weight="bold" text-anchor="middle">CapabilityStatement (Normative)</text><rect width="210" height="30" x="390" y="445" fill="#27ae60" fill-opacity=".7" rx="3"/><text x="495" y="465" fill="#fff" font-family="Arial, sans-serif" font-size="12" font-weight="bold" text-anchor="middle">CodeSystem (Normative)</text><rect width="210" height="30" x="390" y="480" fill="#27ae60" fill-opacity=".7" rx="3"/><text x="495" y="500" fill="#fff" font-family="Arial, sans-serif" font-size="12" font-weight="bold" text-anchor="middle">Bundle (Normative)</text><rect width="250" height="240" x="640" y="290" fill="#f0f0f0" stroke="#ddd" stroke-width="1" rx="5"/><rect width="250" height="40" x="640" y="290" fill="#3498db" fill-opacity=".9" rx="5"/><text x="765" y="315" fill="#fff" font-family="Arial, sans-serif" font-size="16" font-weight="bold" text-anchor="middle">Administrative Resources</text><rect width="210" height="30" x="660" y="340" fill="#27ae60" fill-opacity=".7" rx="3"/><text x="765" y="360" fill="#fff" font-family="Arial, sans-serif" font-size="12" font-weight="bold" text-anchor="middle">Practitioner (Normative)</text><rect width="210" height="30" x="660" y="375" fill="#27ae60" fill-opacity=".7" rx="3"/><text x="765" y="395" fill="#fff" font-family="Arial, sans-serif" font-size="12" font-weight="bold" text-anchor="middle">Organization (Normative)</text><rect width="210" height="30" x="660" y="410" fill="#27ae60" fill-opacity=".7" rx="3"/><text x="765" y="430" fill="#fff" font-family="Arial, sans-serif" font-size="12" font-weight="bold" text-anchor="middle">Location (Normative)</text><rect width="210" height="30" x="660" y="445" fill="#2980b9" fill-opacity=".7" rx="3"/><text x="765" y="465" fill="#fff" font-family="Arial, sans-serif" font-size="12" font-weight="bold" text-anchor="middle">Appointment (Trial Use)</text><rect width="210" height="30" x="660" y="480" fill="#2980b9" fill-opacity=".7" rx="3"/><text x="765" y="500" fill="#fff" font-family="Arial, sans-serif" font-size="12" font-weight="bold" text-anchor="middle">Schedule (Trial Use)</text><rect width="160" height="30" x="250" y="550" fill="#27ae60" fill-opacity=".7" rx="3"/><text x="330" y="570" fill="#fff" font-family="Arial, sans-serif" font-size="14" font-weight="bold" text-anchor="middle">Normative</text><rect width="160" height="30" x="430" y="550" fill="#2980b9" fill-opacity=".7" rx="3"/><text x="510" y="570" fill="#fff" font-family="Arial, sans-serif" font-size="14" font-weight="bold" text-anchor="middle">Trial Use</text><text x="450" y="600" fill="#555" font-family="Arial, sans-serif" font-size="12" text-anchor="middle">* Đây là danh sách không đầy đủ của một số tài nguyên quan trọng</text></svg>