<svg xmlns="http://www.w3.org/2000/svg" viewBox="0 0 1000 800"><rect width="1000" height="800" fill="#FFF"/><rect width="900" height="60" x="50" y="30" fill="#3949AB" rx="10"/><text x="500" y="70" fill="#FFF" font-family="Arial, sans-serif" font-size="26" font-weight="bold" text-anchor="middle">Mô hình tài nguyên FHIR R5: Cấu trúc và Ứng dụng</text><rect width="70" height="30" x="860" y="45" fill="#FFF" rx="5"/><text x="895" y="67" fill="#3949AB" font-family="Arial, sans-serif" font-size="16" font-weight="bold" text-anchor="middle">FHIR R5</text><rect width="200" height="80" x="400" y="120" fill="#C5CAE9" stroke="#3949AB" stroke-width="2" rx="10"/><text x="500" y="160" fill="#283593" font-family="Arial, sans-serif" font-size="20" font-weight="bold" text-anchor="middle">Resource</text><text x="500" y="185" fill="#283593" font-family="Arial, sans-serif" font-size="14" text-anchor="middle">Tài nguyên cốt lõi</text><rect width="600" height="60" x="200" y="240" fill="#E8EAF6" stroke="#3949AB" stroke-width="2" rx="10"/><text x="500" y="275" fill="#283593" font-family="Arial, sans-serif" font-size="16" font-weight="bold" text-anchor="middle">Thuộc tính cơ bản: id, meta, text, extension, ...</text><rect width="900" height="60" x="50" y="340" fill="#3949AB" rx="10"/><text x="500" y="380" fill="#FFF" font-family="Arial, sans-serif" font-size="20" font-weight="bold" text-anchor="middle">Các nhóm tài nguyên FHIR R5</text><rect width="250" height="280" x="70" y="430" fill="#BBDEFB" stroke="#1976D2" stroke-width="2" rx="10"/><text x="195" y="460" fill="#1565C0" font-family="Arial, sans-serif" font-size="18" font-weight="bold" text-anchor="middle">Nhóm lâm sàng</text><rect width="210" height="40" x="90" y="480" fill="#E3F2FD" stroke="#1976D2" stroke-width="1" rx="5"/><text x="195" y="505" fill="#1565C0" font-family="Arial, sans-serif" font-size="14" text-anchor="middle">Patient</text><rect width="210" height="40" x="90" y="530" fill="#E3F2FD" stroke="#1976D2" stroke-width="1" rx="5"/><text x="195" y="555" fill="#1565C0" font-family="Arial, sans-serif" font-size="14" text-anchor="middle">Observation</text><rect width="210" height="40" x="90" y="580" fill="#E3F2FD" stroke="#1976D2" stroke-width="1" rx="5"/><text x="195" y="605" fill="#1565C0" font-family="Arial, sans-serif" font-size="14" text-anchor="middle">Condition</text><rect width="210" height="40" x="90" y="630" fill="#E3F2FD" stroke="#1976D2" stroke-width="1" rx="5"/><text x="195" y="655" fill="#1565C0" font-family="Arial, sans-serif" font-size="14" text-anchor="middle">Procedure</text><rect width="250" height="280" x="375" y="430" fill="#C8E6C9" stroke="#388E3C" stroke-width="2" rx="10"/><text x="500" y="460" fill="#2E7D32" font-family="Arial, sans-serif" font-size="18" font-weight="bold" text-anchor="middle">Nhóm hành chính</text><rect width="210" height="40" x="395" y="480" fill="#E8F5E9" stroke="#388E3C" stroke-width="1" rx="5"/><text x="500" y="505" fill="#2E7D32" font-family="Arial, sans-serif" font-size="14" text-anchor="middle">Organization</text><rect width="210" height="40" x="395" y="530" fill="#E8F5E9" stroke="#388E3C" stroke-width="1" rx="5"/><text x="500" y="555" fill="#2E7D32" font-family="Arial, sans-serif" font-size="14" text-anchor="middle">Practitioner</text><rect width="210" height="40" x="395" y="580" fill="#E8F5E9" stroke="#388E3C" stroke-width="1" rx="5"/><text x="500" y="605" fill="#2E7D32" font-family="Arial, sans-serif" font-size="14" text-anchor="middle">Encounter</text><rect width="210" height="40" x="395" y="630" fill="#E8F5E9" stroke="#388E3C" stroke-width="1" rx="5"/><text x="500" y="655" fill="#2E7D32" font-family="Arial, sans-serif" font-size="14" text-anchor="middle">Location</text><rect width="250" height="280" x="680" y="430" fill="#FFECB3" stroke="#FFA000" stroke-width="2" rx="10"/><text x="805" y="460" fill="#F57C00" font-family="Arial, sans-serif" font-size="18" font-weight="bold" text-anchor="middle">Nhóm hạ tầng</text><rect width="210" height="40" x="700" y="480" fill="#FFF8E1" stroke="#FFA000" stroke-width="1" rx="5"/><text x="805" y="505" fill="#F57C00" font-family="Arial, sans-serif" font-size="14" text-anchor="middle">Bundle</text><rect width="210" height="40" x="700" y="530" fill="#FFF8E1" stroke="#FFA000" stroke-width="1" rx="5"/><text x="805" y="555" fill="#F57C00" font-family="Arial, sans-serif" font-size="14" text-anchor="middle">OperationOutcome</text><rect width="210" height="40" x="700" y="580" fill="#FFF8E1" stroke="#FFA000" stroke-width="1" rx="5"/><text x="805" y="605" fill="#F57C00" font-family="Arial, sans-serif" font-size="14" text-anchor="middle">CapabilityStatement</text><rect width="210" height="40" x="700" y="630" fill="#FFF8E1" stroke="#FFA000" stroke-width="1" rx="5"/><text x="805" y="655" fill="#F57C00" font-family="Arial, sans-serif" font-size="14" text-anchor="middle">Subscription</text><rect width="900" height="50" x="50" y="730" fill="#D1C4E9" stroke="#673AB7" stroke-width="2" rx="10"/><text x="500" y="760" fill="#4527A0" font-family="Arial, sans-serif" font-size="16" font-weight="bold" text-anchor="middle">Tính năng mới R5: Kiểu dữ liệu mở rộng, MetadataResource, Mô hình sự kiện được cải tiến</text><line x1="500" x2="500" y1="200" y2="240" stroke="#3949AB" stroke-width="2"/><line x1="500" x2="500" y1="300" y2="340" stroke="#3949AB" stroke-width="2"/><line x1="195" x2="195" y1="400" y2="430" stroke="#3949AB" stroke-width="2"/><line x1="500" x2="500" y1="400" y2="430" stroke="#3949AB" stroke-width="2"/><line x1="805" x2="805" y1="400" y2="430" stroke="#3949AB" stroke-width="2"/><line x1="500" x2="500" y1="710" y2="730" stroke="#3949AB" stroke-width="2"/></svg>