<svg xmlns="http://www.w3.org/2000/svg" width="800" height="500" viewBox="0 0 800 500"><rect width="800" height="500" fill="#f8f9fa" rx="10" ry="10"/><text x="400" y="40" fill="#333" font-family="Arial" font-size="24" font-weight="bold" text-anchor="middle">FHIR Interoperability Architecture</text><rect width="700" height="370" x="50" y="80" fill="#e6f7ff" stroke="#0056b3" stroke-width="2" rx="10" ry="10"/><text x="400" y="105" fill="#0056b3" font-family="Arial" font-size="18" font-weight="bold" text-anchor="middle">Healthcare Ecosystem</text><rect width="160" height="120" x="320" y="130" fill="#0056b3" stroke="#036" stroke-width="2" rx="8" ry="8"/><text x="400" y="155" fill="#fff" font-family="Arial" font-size="16" font-weight="bold" text-anchor="middle">FHIR Server</text><text x="400" y="185" fill="#fff" font-family="Arial" font-size="12" text-anchor="middle">Resources</text><text x="400" y="205" fill="#fff" font-family="Arial" font-size="12" text-anchor="middle">RESTful API</text><text x="400" y="225" fill="#fff" font-family="Arial" font-size="12" text-anchor="middle">Terminology</text><rect width="120" height="80" x="100" y="180" fill="#fff" stroke="#666" stroke-width="2" rx="8" ry="8"/><text x="160" y="215" font-family="Arial" font-size="14" font-weight="bold" text-anchor="middle">Hospital EHR</text><line x1="220" x2="320" y1="210" y2="190" stroke="#333" stroke-dasharray="5 5" stroke-width="2"/><text x="270" y="180" fill="#333" font-family="Arial" font-size="12" transform="rotate(-10, 270, 180)">REST API</text><rect width="120" height="80" x="100" y="320" fill="#fff" stroke="#666" stroke-width="2" rx="8" ry="8"/><text x="160" y="355" font-family="Arial" font-size="14" font-weight="bold" text-anchor="middle">Clinic System</text><line x1="220" x2="320" y1="340" y2="230" stroke="#333" stroke-dasharray="5 5" stroke-width="2"/><text x="270" y="300" fill="#333" font-family="Arial" font-size="12" transform="rotate(25, 270, 300)">REST API</text><rect width="120" height="80" x="580" y="180" fill="#fff" stroke="#666" stroke-width="2" rx="8" ry="8"/><text x="640" y="215" font-family="Arial" font-size="14" font-weight="bold" text-anchor="middle">Mobile App</text><line x1="580" x2="480" y1="210" y2="190" stroke="#333" stroke-dasharray="5 5" stroke-width="2"/><text x="530" y="180" fill="#333" font-family="Arial" font-size="12" transform="rotate(10, 530, 180)">REST API</text><rect width="120" height="80" x="580" y="320" fill="#fff" stroke="#666" stroke-width="2" rx="8" ry="8"/><text x="640" y="355" font-family="Arial" font-size="14" font-weight="bold" text-anchor="middle">Analytics</text><line x1="580" x2="480" y1="340" y2="230" stroke="#333" stroke-dasharray="5 5" stroke-width="2"/><text x="530" y="300" fill="#333" font-family="Arial" font-size="12" transform="rotate(-25, 530, 300)">REST API</text><rect width="160" height="100" x="320" y="310" fill="#fff" stroke="#0056b3" stroke-width="2" rx="8" ry="8"/><text x="400" y="330" fill="#0056b3" font-family="Arial" font-size="14" font-weight="bold" text-anchor="middle">FHIR Resources</text><rect width="30" height="25" x="340" y="345" fill="#f90" rx="4" ry="4"/><text x="355" y="362" fill="#fff" font-family="Arial" font-size="10" text-anchor="middle">Patient</text><rect width="40" height="25" x="380" y="345" fill="#6c3" rx="4" ry="4"/><text x="400" y="362" fill="#fff" font-family="Arial" font-size="10" text-anchor="middle">Observation</text><rect width="30" height="25" x="430" y="345" fill="#c36" rx="4" ry="4"/><text x="445" y="362" fill="#fff" font-family="Arial" font-size="10" text-anchor="middle">Care</text><rect width="35" height="25" x="340" y="375" fill="#36c" rx="4" ry="4"/><text x="357" y="392" fill="#fff" font-family="Arial" font-size="10" text-anchor="middle">Encounter</text><rect width="40" height="25" x="385" y="375" fill="#93c" rx="4" ry="4"/><text x="405" y="392" fill="#fff" font-family="Arial" font-size="10" text-anchor="middle">Medication</text><rect width="30" height="25" x="435" y="375" fill="#3cc" rx="4" ry="4"/><text x="450" y="392" fill="#fff" font-family="Arial" font-size="10" text-anchor="middle">Device</text><text x="400" y="480" fill="#666" font-family="Arial" font-size="16" font-style="italic" text-anchor="middle">Enabling seamless healthcare data exchange across systems</text></svg>